<mxfile host="app.diagrams.net" modified="2023-06-15T22:08:58.129Z" agent="Mozilla/5.0 (Macintosh; Intel Mac OS X 10_15_7) AppleWebKit/605.1.15 (KHTML, like Gecko) Version/16.5 Safari/605.1.15" etag="gqXTHDbDPSzgm63RBgc4" version="21.4.0" type="device">
  <diagram name="Page-1" id="yPgJPF17U72lU_apWw2P">
    <mxGraphModel dx="7907" dy="1778" grid="1" gridSize="10" guides="1" tooltips="1" connect="1" arrows="1" fold="1" page="1" pageScale="1" pageWidth="900" pageHeight="1600" background="#ffffff" math="0" shadow="0">
      <root>
        <mxCell id="0" />
        <mxCell id="1" parent="0" />
        <mxCell id="2UeZ1bjiQaoSKNEX52Vq-69" value="16" style="whiteSpace=wrap;html=1;aspect=fixed;fillColor=#A7AFCA;fontColor=#ffffff;strokeColor=#314354;fontSize=40;fontStyle=1" parent="1" vertex="1">
          <mxGeometry x="-2040" y="160" width="80" height="80" as="geometry" />
        </mxCell>
        <mxCell id="2UeZ1bjiQaoSKNEX52Vq-70" value="" style="whiteSpace=wrap;html=1;aspect=fixed;fillColor=#A7AFCA;fontColor=#ffffff;strokeColor=#314354;" parent="1" vertex="1">
          <mxGeometry x="-2120" y="160" width="80" height="80" as="geometry" />
        </mxCell>
        <mxCell id="2UeZ1bjiQaoSKNEX52Vq-71" value="" style="whiteSpace=wrap;html=1;aspect=fixed;fillColor=#A7AFCA;fontColor=#ffffff;strokeColor=#314354;" parent="1" vertex="1">
          <mxGeometry x="-2200" y="160" width="80" height="80" as="geometry" />
        </mxCell>
        <mxCell id="2UeZ1bjiQaoSKNEX52Vq-72" value="" style="whiteSpace=wrap;html=1;aspect=fixed;fillColor=#A7AFCA;fontColor=#ffffff;strokeColor=#314354;" parent="1" vertex="1">
          <mxGeometry x="-2280" y="160" width="80" height="80" as="geometry" />
        </mxCell>
        <mxCell id="2UeZ1bjiQaoSKNEX52Vq-73" value="" style="whiteSpace=wrap;html=1;aspect=fixed;fillColor=#A7AFCA;fontColor=#ffffff;strokeColor=#314354;" parent="1" vertex="1">
          <mxGeometry x="-2360" y="160" width="80" height="80" as="geometry" />
        </mxCell>
        <mxCell id="2UeZ1bjiQaoSKNEX52Vq-74" value="" style="whiteSpace=wrap;html=1;aspect=fixed;fillColor=#A7AFCA;fontColor=#ffffff;strokeColor=#314354;" parent="1" vertex="1">
          <mxGeometry x="-2440" y="160" width="80" height="80" as="geometry" />
        </mxCell>
        <mxCell id="2UeZ1bjiQaoSKNEX52Vq-75" value="" style="whiteSpace=wrap;html=1;aspect=fixed;fillColor=#A7AFCA;fontColor=#ffffff;strokeColor=#314354;" parent="1" vertex="1">
          <mxGeometry x="-2520" y="160" width="80" height="80" as="geometry" />
        </mxCell>
        <mxCell id="2UeZ1bjiQaoSKNEX52Vq-76" value="" style="whiteSpace=wrap;html=1;aspect=fixed;fillColor=#A7AFCA;fontColor=#ffffff;strokeColor=#314354;" parent="1" vertex="1">
          <mxGeometry x="-2600" y="160" width="80" height="80" as="geometry" />
        </mxCell>
        <mxCell id="2UeZ1bjiQaoSKNEX52Vq-77" value="" style="whiteSpace=wrap;html=1;aspect=fixed;fillColor=#A7AFCA;fontColor=#ffffff;strokeColor=#314354;" parent="1" vertex="1">
          <mxGeometry x="-2680" y="160" width="80" height="80" as="geometry" />
        </mxCell>
        <mxCell id="2UeZ1bjiQaoSKNEX52Vq-78" value="" style="whiteSpace=wrap;html=1;aspect=fixed;fillColor=#A7AFCA;fontColor=#ffffff;strokeColor=#314354;" parent="1" vertex="1">
          <mxGeometry x="-2760" y="160" width="80" height="80" as="geometry" />
        </mxCell>
        <mxCell id="2UeZ1bjiQaoSKNEX52Vq-79" value="" style="whiteSpace=wrap;html=1;aspect=fixed;fillColor=#A7AFCA;fontColor=#ffffff;strokeColor=#314354;" parent="1" vertex="1">
          <mxGeometry x="-2840" y="160" width="80" height="80" as="geometry" />
        </mxCell>
        <mxCell id="2UeZ1bjiQaoSKNEX52Vq-80" value="" style="whiteSpace=wrap;html=1;aspect=fixed;fillColor=#A7AFCA;fontColor=#ffffff;strokeColor=#314354;" parent="1" vertex="1">
          <mxGeometry x="-2920" y="160" width="80" height="80" as="geometry" />
        </mxCell>
        <mxCell id="2UeZ1bjiQaoSKNEX52Vq-81" value="" style="whiteSpace=wrap;html=1;aspect=fixed;fillColor=#A7AFCA;fontColor=#ffffff;strokeColor=#314354;" parent="1" vertex="1">
          <mxGeometry x="-3000" y="160" width="80" height="80" as="geometry" />
        </mxCell>
        <mxCell id="2UeZ1bjiQaoSKNEX52Vq-82" value="" style="whiteSpace=wrap;html=1;aspect=fixed;fillColor=#A7AFCA;fontColor=#ffffff;strokeColor=#314354;" parent="1" vertex="1">
          <mxGeometry x="-3080" y="160" width="80" height="80" as="geometry" />
        </mxCell>
        <mxCell id="2UeZ1bjiQaoSKNEX52Vq-83" value="" style="whiteSpace=wrap;html=1;aspect=fixed;fillColor=#A7AFCA;fontColor=#ffffff;strokeColor=#314354;" parent="1" vertex="1">
          <mxGeometry x="-3160" y="160" width="80" height="80" as="geometry" />
        </mxCell>
        <mxCell id="2UeZ1bjiQaoSKNEX52Vq-84" value="" style="whiteSpace=wrap;html=1;aspect=fixed;rounded=0;fillColor=#A7AFCA;fontColor=#ffffff;strokeColor=#314354;" parent="1" vertex="1">
          <mxGeometry x="-3240" y="160" width="80" height="80" as="geometry" />
        </mxCell>
        <mxCell id="2UeZ1bjiQaoSKNEX52Vq-85" value="&lt;font size=&quot;1&quot;&gt;&lt;b style=&quot;font-size: 60px;&quot;&gt;0&lt;/b&gt;&lt;/font&gt;" style="shape=process;whiteSpace=wrap;html=1;backgroundOutline=1;rotation=-90;fillColor=#56974C;fontColor=#FFFFFF;strokeColor=#314354;strokeWidth=4;" parent="1" vertex="1">
          <mxGeometry x="-3310" y="370" width="220" height="120" as="geometry" />
        </mxCell>
        <mxCell id="2UeZ1bjiQaoSKNEX52Vq-86" value="&lt;font size=&quot;1&quot;&gt;&lt;b style=&quot;font-size: 60px;&quot;&gt;2&lt;/b&gt;&lt;/font&gt;" style="shape=process;whiteSpace=wrap;html=1;backgroundOutline=1;rotation=-90;fillColor=#56974C;fontColor=#FFFFFF;strokeColor=#314354;strokeWidth=4;" parent="1" vertex="1">
          <mxGeometry x="-2750" y="830" width="220" height="120" as="geometry" />
        </mxCell>
        <mxCell id="2UeZ1bjiQaoSKNEX52Vq-87" value="&lt;font size=&quot;1&quot;&gt;&lt;b style=&quot;font-size: 60px;&quot;&gt;4&lt;/b&gt;&lt;/font&gt;" style="shape=process;whiteSpace=wrap;html=1;backgroundOutline=1;rotation=-90;fillColor=#56974C;fontColor=#FFFFFF;strokeColor=#314354;strokeWidth=4;" parent="1" vertex="1">
          <mxGeometry x="-1710" y="910" width="220" height="120" as="geometry" />
        </mxCell>
        <mxCell id="2UeZ1bjiQaoSKNEX52Vq-88" value="&lt;font size=&quot;1&quot;&gt;&lt;b style=&quot;font-size: 60px;&quot;&gt;1&lt;/b&gt;&lt;/font&gt;" style="shape=process;whiteSpace=wrap;html=1;backgroundOutline=1;rotation=-90;fillColor=#56974C;fontColor=#FFFFFF;strokeColor=#314354;strokeWidth=4;" parent="1" vertex="1">
          <mxGeometry x="-4590" y="910" width="220" height="120" as="geometry" />
        </mxCell>
        <mxCell id="2UeZ1bjiQaoSKNEX52Vq-89" value="&lt;font size=&quot;1&quot;&gt;&lt;b style=&quot;font-size: 60px;&quot;&gt;3&lt;/b&gt;&lt;/font&gt;" style="shape=process;whiteSpace=wrap;html=1;backgroundOutline=1;rotation=0;fillColor=#56974C;fontColor=#FFFFFF;strokeColor=#314354;strokeWidth=4;" parent="1" vertex="1">
          <mxGeometry x="-2330" y="360" width="260" height="120" as="geometry" />
        </mxCell>
        <mxCell id="2UeZ1bjiQaoSKNEX52Vq-90" value="&lt;font size=&quot;1&quot;&gt;&lt;b style=&quot;font-size: 60px;&quot;&gt;5&lt;/b&gt;&lt;/font&gt;" style="shape=process;whiteSpace=wrap;html=1;backgroundOutline=1;fillColor=#56974C;fontColor=#FFFFFF;strokeColor=#314354;strokeWidth=4;" parent="1" vertex="1">
          <mxGeometry x="-1960" y="140" width="240" height="120" as="geometry" />
        </mxCell>
        <mxCell id="2UeZ1bjiQaoSKNEX52Vq-91" value="&lt;b&gt;&lt;font style=&quot;font-size: 45px;&quot;&gt;0&lt;/font&gt;&lt;/b&gt;" style="shape=sumEllipse;perimeter=ellipsePerimeter;whiteSpace=wrap;html=1;backgroundOutline=1;fillColor=#fad9d5;strokeColor=#ae4132;fontColor=#1A1A1A;" parent="1" vertex="1">
          <mxGeometry x="-3080" y="80" width="80" height="80" as="geometry" />
        </mxCell>
        <mxCell id="2UeZ1bjiQaoSKNEX52Vq-92" value="&lt;b&gt;&lt;font style=&quot;font-size: 45px;&quot;&gt;1&lt;/font&gt;&lt;/b&gt;" style="shape=sumEllipse;perimeter=ellipsePerimeter;whiteSpace=wrap;html=1;backgroundOutline=1;fillColor=#fad9d5;strokeColor=#ae4132;fontColor=#1A1A1A;" parent="1" vertex="1">
          <mxGeometry x="-4360" y="620" width="80" height="80" as="geometry" />
        </mxCell>
        <mxCell id="2UeZ1bjiQaoSKNEX52Vq-93" value="&lt;b&gt;&lt;font style=&quot;font-size: 45px;&quot;&gt;4&lt;/font&gt;&lt;/b&gt;" style="shape=sumEllipse;perimeter=ellipsePerimeter;whiteSpace=wrap;html=1;backgroundOutline=1;fillColor=#fad9d5;strokeColor=#ae4132;fontColor=#1A1A1A;" parent="1" vertex="1">
          <mxGeometry x="-1720" y="1320" width="80" height="80" as="geometry" />
        </mxCell>
        <mxCell id="2UeZ1bjiQaoSKNEX52Vq-94" value="&lt;b&gt;&lt;font style=&quot;font-size: 45px;&quot;&gt;2&lt;/font&gt;&lt;/b&gt;" style="shape=sumEllipse;perimeter=ellipsePerimeter;whiteSpace=wrap;html=1;backgroundOutline=1;fillColor=#fad9d5;strokeColor=#ae4132;fontColor=#1A1A1A;" parent="1" vertex="1">
          <mxGeometry x="-2760" y="1160" width="80" height="80" as="geometry" />
        </mxCell>
        <mxCell id="2UeZ1bjiQaoSKNEX52Vq-95" value="&lt;b&gt;&lt;font style=&quot;font-size: 45px;&quot;&gt;3&lt;/font&gt;&lt;/b&gt;" style="shape=sumEllipse;perimeter=ellipsePerimeter;whiteSpace=wrap;html=1;backgroundOutline=1;fillColor=#fad9d5;strokeColor=#ae4132;fontColor=#1A1A1A;" parent="1" vertex="1">
          <mxGeometry x="-2760" y="380" width="80" height="80" as="geometry" />
        </mxCell>
        <mxCell id="2UeZ1bjiQaoSKNEX52Vq-96" value="&lt;b&gt;&lt;font style=&quot;font-size: 45px;&quot;&gt;5&lt;/font&gt;&lt;/b&gt;" style="shape=sumEllipse;perimeter=ellipsePerimeter;whiteSpace=wrap;html=1;backgroundOutline=1;fillColor=#fad9d5;strokeColor=#ae4132;fontColor=#1A1A1A;" parent="1" vertex="1">
          <mxGeometry x="-1560" y="150" width="80" height="80" as="geometry" />
        </mxCell>
        <mxCell id="2UeZ1bjiQaoSKNEX52Vq-97" value="0" style="whiteSpace=wrap;html=1;aspect=fixed;rounded=0;fillColor=#A7AFCA;fontColor=#ffffff;strokeColor=#314354;fontStyle=1;fontSize=40;" parent="1" vertex="1">
          <mxGeometry x="-3240" y="240" width="80" height="80" as="geometry" />
        </mxCell>
        <mxCell id="2UeZ1bjiQaoSKNEX52Vq-98" value="" style="whiteSpace=wrap;html=1;aspect=fixed;fillColor=#A7AFCA;strokeColor=#314354;fontColor=#ffffff;" parent="1" vertex="1">
          <mxGeometry x="-3240" y="700" width="80" height="80" as="geometry" />
        </mxCell>
        <mxCell id="2UeZ1bjiQaoSKNEX52Vq-99" value="" style="whiteSpace=wrap;html=1;aspect=fixed;fillColor=#A7AFCA;strokeColor=#314354;fontColor=#ffffff;" parent="1" vertex="1">
          <mxGeometry x="-3240" y="620" width="80" height="80" as="geometry" />
        </mxCell>
        <mxCell id="2UeZ1bjiQaoSKNEX52Vq-100" value="19" style="whiteSpace=wrap;html=1;aspect=fixed;rounded=0;fillColor=#A7AFCA;fontColor=#ffffff;strokeColor=#314354;fontSize=40;fontStyle=1" parent="1" vertex="1">
          <mxGeometry x="-3240" y="540" width="80" height="80" as="geometry" />
        </mxCell>
        <mxCell id="2UeZ1bjiQaoSKNEX52Vq-106" value="" style="whiteSpace=wrap;html=1;aspect=fixed;fillColor=#A7AFCA;strokeColor=#314354;fontColor=#ffffff;" parent="1" vertex="1">
          <mxGeometry x="-3400" y="700" width="80" height="80" as="geometry" />
        </mxCell>
        <mxCell id="2UeZ1bjiQaoSKNEX52Vq-107" value="" style="whiteSpace=wrap;html=1;aspect=fixed;fillColor=#A7AFCA;fontColor=#ffffff;strokeColor=#314354;" parent="1" vertex="1">
          <mxGeometry x="-3480" y="700" width="80" height="80" as="geometry" />
        </mxCell>
        <mxCell id="2UeZ1bjiQaoSKNEX52Vq-108" value="" style="whiteSpace=wrap;html=1;aspect=fixed;fillColor=#A7AFCA;fontColor=#ffffff;strokeColor=#314354;" parent="1" vertex="1">
          <mxGeometry x="-3560" y="700" width="80" height="80" as="geometry" />
        </mxCell>
        <mxCell id="2UeZ1bjiQaoSKNEX52Vq-109" value="" style="whiteSpace=wrap;html=1;aspect=fixed;fillColor=#A7AFCA;fontColor=#ffffff;strokeColor=#314354;" parent="1" vertex="1">
          <mxGeometry x="-3640" y="700" width="80" height="80" as="geometry" />
        </mxCell>
        <mxCell id="2UeZ1bjiQaoSKNEX52Vq-110" value="" style="whiteSpace=wrap;html=1;aspect=fixed;fillColor=#A7AFCA;fontColor=#ffffff;strokeColor=#314354;" parent="1" vertex="1">
          <mxGeometry x="-3720" y="700" width="80" height="80" as="geometry" />
        </mxCell>
        <mxCell id="2UeZ1bjiQaoSKNEX52Vq-111" value="" style="whiteSpace=wrap;html=1;aspect=fixed;fillColor=#A7AFCA;fontColor=#ffffff;strokeColor=#314354;" parent="1" vertex="1">
          <mxGeometry x="-3800" y="700" width="80" height="80" as="geometry" />
        </mxCell>
        <mxCell id="2UeZ1bjiQaoSKNEX52Vq-112" value="" style="whiteSpace=wrap;html=1;aspect=fixed;fillColor=#A7AFCA;fontColor=#ffffff;strokeColor=#314354;" parent="1" vertex="1">
          <mxGeometry x="-3880" y="700" width="80" height="80" as="geometry" />
        </mxCell>
        <mxCell id="2UeZ1bjiQaoSKNEX52Vq-113" value="" style="whiteSpace=wrap;html=1;aspect=fixed;fillColor=#A7AFCA;fontColor=#ffffff;strokeColor=#314354;" parent="1" vertex="1">
          <mxGeometry x="-3960" y="700" width="80" height="80" as="geometry" />
        </mxCell>
        <mxCell id="2UeZ1bjiQaoSKNEX52Vq-114" value="" style="whiteSpace=wrap;html=1;aspect=fixed;fillColor=#A7AFCA;fontColor=#ffffff;strokeColor=#314354;" parent="1" vertex="1">
          <mxGeometry x="-4040" y="700" width="80" height="80" as="geometry" />
        </mxCell>
        <mxCell id="2UeZ1bjiQaoSKNEX52Vq-115" value="" style="whiteSpace=wrap;html=1;aspect=fixed;fillColor=#A7AFCA;fontColor=#ffffff;strokeColor=#314354;" parent="1" vertex="1">
          <mxGeometry x="-4120" y="700" width="80" height="80" as="geometry" />
        </mxCell>
        <mxCell id="2UeZ1bjiQaoSKNEX52Vq-116" value="" style="whiteSpace=wrap;html=1;aspect=fixed;fillColor=#A7AFCA;fontColor=#ffffff;strokeColor=#314354;" parent="1" vertex="1">
          <mxGeometry x="-4200" y="700" width="80" height="80" as="geometry" />
        </mxCell>
        <mxCell id="2UeZ1bjiQaoSKNEX52Vq-117" value="" style="whiteSpace=wrap;html=1;aspect=fixed;fillColor=#A7AFCA;fontColor=#ffffff;strokeColor=#314354;" parent="1" vertex="1">
          <mxGeometry x="-4280" y="700" width="80" height="80" as="geometry" />
        </mxCell>
        <mxCell id="2UeZ1bjiQaoSKNEX52Vq-118" value="" style="whiteSpace=wrap;html=1;aspect=fixed;fillColor=#A7AFCA;fontColor=#ffffff;strokeColor=#314354;" parent="1" vertex="1">
          <mxGeometry x="-4360" y="700" width="80" height="80" as="geometry" />
        </mxCell>
        <mxCell id="2UeZ1bjiQaoSKNEX52Vq-119" value="" style="whiteSpace=wrap;html=1;aspect=fixed;fillColor=#A7AFCA;fontColor=#ffffff;strokeColor=#314354;" parent="1" vertex="1">
          <mxGeometry x="-4440" y="700" width="80" height="80" as="geometry" />
        </mxCell>
        <mxCell id="2UeZ1bjiQaoSKNEX52Vq-120" value="" style="whiteSpace=wrap;html=1;aspect=fixed;fillColor=#A7AFCA;fontColor=#ffffff;strokeColor=#314354;" parent="1" vertex="1">
          <mxGeometry x="-4520" y="700" width="80" height="80" as="geometry" />
        </mxCell>
        <mxCell id="2UeZ1bjiQaoSKNEX52Vq-121" value="0" style="whiteSpace=wrap;html=1;aspect=fixed;fillColor=#A7AFCA;fontColor=#ffffff;strokeColor=#314354;fontSize=40;fontStyle=1" parent="1" vertex="1">
          <mxGeometry x="-4520" y="780" width="80" height="80" as="geometry" />
        </mxCell>
        <mxCell id="2UeZ1bjiQaoSKNEX52Vq-122" value="28" style="whiteSpace=wrap;html=1;aspect=fixed;fillColor=#A7AFCA;fontColor=#ffffff;strokeColor=#314354;fontSize=40;fontStyle=1" parent="1" vertex="1">
          <mxGeometry x="-4520" y="1080" width="80" height="80" as="geometry" />
        </mxCell>
        <mxCell id="2UeZ1bjiQaoSKNEX52Vq-123" value="" style="whiteSpace=wrap;html=1;aspect=fixed;fillColor=#A7AFCA;fontColor=#ffffff;strokeColor=#314354;" parent="1" vertex="1">
          <mxGeometry x="-4520" y="1160" width="80" height="80" as="geometry" />
        </mxCell>
        <mxCell id="2UeZ1bjiQaoSKNEX52Vq-124" value="" style="whiteSpace=wrap;html=1;aspect=fixed;fillColor=#A7AFCA;fontColor=#ffffff;strokeColor=#314354;" parent="1" vertex="1">
          <mxGeometry x="-4520" y="1240" width="80" height="80" as="geometry" />
        </mxCell>
        <mxCell id="2UeZ1bjiQaoSKNEX52Vq-174" value="" style="whiteSpace=wrap;html=1;aspect=fixed;fillColor=#A7AFCA;fontColor=#ffffff;strokeColor=#314354;" parent="1" vertex="1">
          <mxGeometry x="-1640" y="1160" width="80" height="80" as="geometry" />
        </mxCell>
        <mxCell id="2UeZ1bjiQaoSKNEX52Vq-175" value="0" style="whiteSpace=wrap;html=1;aspect=fixed;fillColor=#A7AFCA;fontColor=#ffffff;strokeColor=#314354;fontSize=40;fontStyle=1" parent="1" vertex="1">
          <mxGeometry x="-1640" y="1080" width="80" height="80" as="geometry" />
        </mxCell>
        <mxCell id="2UeZ1bjiQaoSKNEX52Vq-176" value="" style="whiteSpace=wrap;html=1;aspect=fixed;fillColor=#A7AFCA;fontColor=#ffffff;strokeColor=#314354;" parent="1" vertex="1">
          <mxGeometry x="-1640" y="1240" width="80" height="80" as="geometry" />
        </mxCell>
        <mxCell id="2UeZ1bjiQaoSKNEX52Vq-177" value="" style="whiteSpace=wrap;html=1;aspect=fixed;fillColor=#A7AFCA;fontColor=#ffffff;strokeColor=#314354;" parent="1" vertex="1">
          <mxGeometry x="-1720" y="1240" width="80" height="80" as="geometry" />
        </mxCell>
        <mxCell id="2UeZ1bjiQaoSKNEX52Vq-179" value="" style="whiteSpace=wrap;html=1;aspect=fixed;fillColor=#A7AFCA;fontColor=#ffffff;strokeColor=#314354;" parent="1" vertex="1">
          <mxGeometry x="-1800" y="1240" width="80" height="80" as="geometry" />
        </mxCell>
        <mxCell id="2UeZ1bjiQaoSKNEX52Vq-180" value="" style="whiteSpace=wrap;html=1;aspect=fixed;fillColor=#A7AFCA;fontColor=#ffffff;strokeColor=#314354;" parent="1" vertex="1">
          <mxGeometry x="-1880" y="1240" width="80" height="80" as="geometry" />
        </mxCell>
        <mxCell id="2UeZ1bjiQaoSKNEX52Vq-181" value="" style="whiteSpace=wrap;html=1;aspect=fixed;fillColor=#A7AFCA;fontColor=#ffffff;strokeColor=#314354;" parent="1" vertex="1">
          <mxGeometry x="-1960" y="1240" width="80" height="80" as="geometry" />
        </mxCell>
        <mxCell id="2UeZ1bjiQaoSKNEX52Vq-182" value="" style="whiteSpace=wrap;html=1;aspect=fixed;fillColor=#A7AFCA;fontColor=#ffffff;strokeColor=#314354;" parent="1" vertex="1">
          <mxGeometry x="-2040" y="1240" width="80" height="80" as="geometry" />
        </mxCell>
        <mxCell id="2UeZ1bjiQaoSKNEX52Vq-183" value="" style="whiteSpace=wrap;html=1;aspect=fixed;fillColor=#A7AFCA;fontColor=#ffffff;strokeColor=#314354;" parent="1" vertex="1">
          <mxGeometry x="-2120" y="1240" width="80" height="80" as="geometry" />
        </mxCell>
        <mxCell id="2UeZ1bjiQaoSKNEX52Vq-184" value="" style="whiteSpace=wrap;html=1;aspect=fixed;fillColor=#A7AFCA;fontColor=#ffffff;strokeColor=#314354;" parent="1" vertex="1">
          <mxGeometry x="-2200" y="1240" width="80" height="80" as="geometry" />
        </mxCell>
        <mxCell id="2UeZ1bjiQaoSKNEX52Vq-185" value="" style="whiteSpace=wrap;html=1;aspect=fixed;fillColor=#A7AFCA;fontColor=#ffffff;strokeColor=#314354;" parent="1" vertex="1">
          <mxGeometry x="-2280" y="1240" width="80" height="80" as="geometry" />
        </mxCell>
        <mxCell id="2UeZ1bjiQaoSKNEX52Vq-186" value="" style="whiteSpace=wrap;html=1;aspect=fixed;fillColor=#A7AFCA;fontColor=#ffffff;strokeColor=#314354;" parent="1" vertex="1">
          <mxGeometry x="-2360" y="1240" width="80" height="80" as="geometry" />
        </mxCell>
        <mxCell id="2UeZ1bjiQaoSKNEX52Vq-187" value="" style="whiteSpace=wrap;html=1;aspect=fixed;fillColor=#A7AFCA;fontColor=#ffffff;strokeColor=#314354;" parent="1" vertex="1">
          <mxGeometry x="-2440" y="1240" width="80" height="80" as="geometry" />
        </mxCell>
        <mxCell id="2UeZ1bjiQaoSKNEX52Vq-188" value="" style="whiteSpace=wrap;html=1;aspect=fixed;fillColor=#A7AFCA;fontColor=#ffffff;strokeColor=#314354;" parent="1" vertex="1">
          <mxGeometry x="-2520" y="1240" width="80" height="80" as="geometry" />
        </mxCell>
        <mxCell id="2UeZ1bjiQaoSKNEX52Vq-189" value="14" style="whiteSpace=wrap;html=1;aspect=fixed;fillColor=#A7AFCA;fontColor=#ffffff;strokeColor=#314354;fontSize=40;fontStyle=1" parent="1" vertex="1">
          <mxGeometry x="-2600" y="1240" width="80" height="80" as="geometry" />
        </mxCell>
        <mxCell id="2UeZ1bjiQaoSKNEX52Vq-190" value="0" style="whiteSpace=wrap;html=1;aspect=fixed;fillColor=#A7AFCA;fontColor=#ffffff;strokeColor=#314354;fontSize=40;fontStyle=1" parent="1" vertex="1">
          <mxGeometry x="-2680" y="1000" width="80" height="80" as="geometry" />
        </mxCell>
        <mxCell id="2UeZ1bjiQaoSKNEX52Vq-191" value="" style="whiteSpace=wrap;html=1;aspect=fixed;fillColor=#A7AFCA;fontColor=#ffffff;strokeColor=#314354;" parent="1" vertex="1">
          <mxGeometry x="-2680" y="1080" width="80" height="80" as="geometry" />
        </mxCell>
        <mxCell id="2UeZ1bjiQaoSKNEX52Vq-192" value="" style="whiteSpace=wrap;html=1;aspect=fixed;fillColor=#A7AFCA;fontColor=#ffffff;strokeColor=#314354;" parent="1" vertex="1">
          <mxGeometry x="-2680" y="1160" width="80" height="80" as="geometry" />
        </mxCell>
        <mxCell id="2UeZ1bjiQaoSKNEX52Vq-193" value="" style="whiteSpace=wrap;html=1;aspect=fixed;fillColor=#A7AFCA;fontColor=#ffffff;strokeColor=#314354;" parent="1" vertex="1">
          <mxGeometry x="-2680" y="1240" width="80" height="80" as="geometry" />
        </mxCell>
        <mxCell id="2UeZ1bjiQaoSKNEX52Vq-194" value="" style="whiteSpace=wrap;html=1;aspect=fixed;fillColor=#A7AFCA;fontColor=#ffffff;strokeColor=#314354;" parent="1" vertex="1">
          <mxGeometry x="-2760" y="1240" width="80" height="80" as="geometry" />
        </mxCell>
        <mxCell id="2UeZ1bjiQaoSKNEX52Vq-195" value="" style="whiteSpace=wrap;html=1;aspect=fixed;fillColor=#A7AFCA;fontColor=#ffffff;strokeColor=#314354;" parent="1" vertex="1">
          <mxGeometry x="-2840" y="1240" width="80" height="80" as="geometry" />
        </mxCell>
        <mxCell id="2UeZ1bjiQaoSKNEX52Vq-196" value="" style="whiteSpace=wrap;html=1;aspect=fixed;fillColor=#A7AFCA;fontColor=#ffffff;strokeColor=#314354;" parent="1" vertex="1">
          <mxGeometry x="-2920" y="1240" width="80" height="80" as="geometry" />
        </mxCell>
        <mxCell id="2UeZ1bjiQaoSKNEX52Vq-197" value="" style="whiteSpace=wrap;html=1;aspect=fixed;fillColor=#A7AFCA;fontColor=#ffffff;strokeColor=#314354;" parent="1" vertex="1">
          <mxGeometry x="-3000" y="1240" width="80" height="80" as="geometry" />
        </mxCell>
        <mxCell id="2UeZ1bjiQaoSKNEX52Vq-198" value="" style="whiteSpace=wrap;html=1;aspect=fixed;fillColor=#A7AFCA;fontColor=#ffffff;strokeColor=#314354;" parent="1" vertex="1">
          <mxGeometry x="-3080" y="1240" width="80" height="80" as="geometry" />
        </mxCell>
        <mxCell id="2UeZ1bjiQaoSKNEX52Vq-199" value="" style="whiteSpace=wrap;html=1;aspect=fixed;fillColor=#A7AFCA;fontColor=#ffffff;strokeColor=#314354;" parent="1" vertex="1">
          <mxGeometry x="-3160" y="1240" width="80" height="80" as="geometry" />
        </mxCell>
        <mxCell id="2UeZ1bjiQaoSKNEX52Vq-200" value="" style="whiteSpace=wrap;html=1;aspect=fixed;fillColor=#A7AFCA;fontColor=#ffffff;strokeColor=#314354;" parent="1" vertex="1">
          <mxGeometry x="-3240" y="1240" width="80" height="80" as="geometry" />
        </mxCell>
        <mxCell id="2UeZ1bjiQaoSKNEX52Vq-201" value="" style="whiteSpace=wrap;html=1;aspect=fixed;fillColor=#A7AFCA;fontColor=#ffffff;strokeColor=#314354;" parent="1" vertex="1">
          <mxGeometry x="-3320" y="1240" width="80" height="80" as="geometry" />
        </mxCell>
        <mxCell id="2UeZ1bjiQaoSKNEX52Vq-202" value="" style="whiteSpace=wrap;html=1;aspect=fixed;fillColor=#A7AFCA;fontColor=#ffffff;strokeColor=#314354;" parent="1" vertex="1">
          <mxGeometry x="-3400" y="1240" width="80" height="80" as="geometry" />
        </mxCell>
        <mxCell id="2UeZ1bjiQaoSKNEX52Vq-203" value="" style="whiteSpace=wrap;html=1;aspect=fixed;fillColor=#A7AFCA;fontColor=#ffffff;strokeColor=#314354;" parent="1" vertex="1">
          <mxGeometry x="-3480" y="1240" width="80" height="80" as="geometry" />
        </mxCell>
        <mxCell id="2UeZ1bjiQaoSKNEX52Vq-204" value="" style="whiteSpace=wrap;html=1;aspect=fixed;fillColor=#A7AFCA;fontColor=#ffffff;strokeColor=#314354;" parent="1" vertex="1">
          <mxGeometry x="-3560" y="1240" width="80" height="80" as="geometry" />
        </mxCell>
        <mxCell id="2UeZ1bjiQaoSKNEX52Vq-205" value="" style="whiteSpace=wrap;html=1;aspect=fixed;fillColor=#A7AFCA;fontColor=#ffffff;strokeColor=#314354;" parent="1" vertex="1">
          <mxGeometry x="-3640" y="1240" width="80" height="80" as="geometry" />
        </mxCell>
        <mxCell id="2UeZ1bjiQaoSKNEX52Vq-206" value="" style="whiteSpace=wrap;html=1;aspect=fixed;fillColor=#A7AFCA;fontColor=#ffffff;strokeColor=#314354;" parent="1" vertex="1">
          <mxGeometry x="-3720" y="1240" width="80" height="80" as="geometry" />
        </mxCell>
        <mxCell id="2UeZ1bjiQaoSKNEX52Vq-207" value="" style="whiteSpace=wrap;html=1;aspect=fixed;fillColor=#A7AFCA;fontColor=#ffffff;strokeColor=#314354;" parent="1" vertex="1">
          <mxGeometry x="-3800" y="1240" width="80" height="80" as="geometry" />
        </mxCell>
        <mxCell id="2UeZ1bjiQaoSKNEX52Vq-208" value="" style="whiteSpace=wrap;html=1;aspect=fixed;fillColor=#A7AFCA;fontColor=#ffffff;strokeColor=#314354;" parent="1" vertex="1">
          <mxGeometry x="-3880" y="1240" width="80" height="80" as="geometry" />
        </mxCell>
        <mxCell id="2UeZ1bjiQaoSKNEX52Vq-209" value="" style="whiteSpace=wrap;html=1;aspect=fixed;fillColor=#A7AFCA;fontColor=#ffffff;strokeColor=#314354;" parent="1" vertex="1">
          <mxGeometry x="-3960" y="1240" width="80" height="80" as="geometry" />
        </mxCell>
        <mxCell id="2UeZ1bjiQaoSKNEX52Vq-210" value="" style="whiteSpace=wrap;html=1;aspect=fixed;fillColor=#A7AFCA;fontColor=#ffffff;strokeColor=#314354;" parent="1" vertex="1">
          <mxGeometry x="-4040" y="1240" width="80" height="80" as="geometry" />
        </mxCell>
        <mxCell id="2UeZ1bjiQaoSKNEX52Vq-211" value="" style="whiteSpace=wrap;html=1;aspect=fixed;fillColor=#A7AFCA;fontColor=#ffffff;strokeColor=#314354;" parent="1" vertex="1">
          <mxGeometry x="-4120" y="1240" width="80" height="80" as="geometry" />
        </mxCell>
        <mxCell id="2UeZ1bjiQaoSKNEX52Vq-212" value="" style="whiteSpace=wrap;html=1;aspect=fixed;fillColor=#A7AFCA;fontColor=#ffffff;strokeColor=#314354;" parent="1" vertex="1">
          <mxGeometry x="-4200" y="1240" width="80" height="80" as="geometry" />
        </mxCell>
        <mxCell id="2UeZ1bjiQaoSKNEX52Vq-213" value="" style="whiteSpace=wrap;html=1;aspect=fixed;fillColor=#A7AFCA;fontColor=#ffffff;strokeColor=#314354;" parent="1" vertex="1">
          <mxGeometry x="-4280" y="1240" width="80" height="80" as="geometry" />
        </mxCell>
        <mxCell id="2UeZ1bjiQaoSKNEX52Vq-214" value="" style="whiteSpace=wrap;html=1;aspect=fixed;fillColor=#A7AFCA;fontColor=#ffffff;strokeColor=#314354;" parent="1" vertex="1">
          <mxGeometry x="-4360" y="1240" width="80" height="80" as="geometry" />
        </mxCell>
        <mxCell id="2UeZ1bjiQaoSKNEX52Vq-215" value="" style="whiteSpace=wrap;html=1;aspect=fixed;fillColor=#A7AFCA;fontColor=#ffffff;strokeColor=#314354;" parent="1" vertex="1">
          <mxGeometry x="-4440" y="1240" width="80" height="80" as="geometry" />
        </mxCell>
        <mxCell id="2UeZ1bjiQaoSKNEX52Vq-216" value="" style="whiteSpace=wrap;html=1;aspect=fixed;fillColor=#A7AFCA;strokeColor=#314354;fontColor=#ffffff;" parent="1" vertex="1">
          <mxGeometry x="-3320" y="700" width="80" height="80" as="geometry" />
        </mxCell>
        <mxCell id="2UeZ1bjiQaoSKNEX52Vq-219" value="" style="whiteSpace=wrap;html=1;aspect=fixed;fillColor=#A7AFCA;fontColor=#ffffff;strokeColor=#314354;" parent="1" vertex="1">
          <mxGeometry x="-2680" y="620" width="80" height="80" as="geometry" />
        </mxCell>
        <mxCell id="2UeZ1bjiQaoSKNEX52Vq-220" value="" style="whiteSpace=wrap;html=1;aspect=fixed;fillColor=#A7AFCA;fontColor=#ffffff;strokeColor=#314354;" parent="1" vertex="1">
          <mxGeometry x="-2680" y="540" width="80" height="80" as="geometry" />
        </mxCell>
        <mxCell id="2UeZ1bjiQaoSKNEX52Vq-221" value="7" style="whiteSpace=wrap;html=1;aspect=fixed;fillColor=#A7AFCA;fontColor=#ffffff;strokeColor=#314354;fontSize=40;fontStyle=1" parent="1" vertex="1">
          <mxGeometry x="-2680" y="700" width="80" height="80" as="geometry" />
        </mxCell>
        <mxCell id="2UeZ1bjiQaoSKNEX52Vq-222" value="" style="whiteSpace=wrap;html=1;aspect=fixed;fillColor=#A7AFCA;fontColor=#ffffff;strokeColor=#314354;" parent="1" vertex="1">
          <mxGeometry x="-2680" y="380" width="80" height="80" as="geometry" />
        </mxCell>
        <mxCell id="2UeZ1bjiQaoSKNEX52Vq-223" value="" style="whiteSpace=wrap;html=1;fillColor=#A7AFCA;fontColor=#ffffff;strokeColor=#314354;" parent="1" vertex="1">
          <mxGeometry x="-2600" y="380" width="90" height="80" as="geometry" />
        </mxCell>
        <mxCell id="2UeZ1bjiQaoSKNEX52Vq-224" value="" style="whiteSpace=wrap;html=1;aspect=fixed;fillColor=#A7AFCA;fontColor=#ffffff;strokeColor=#314354;" parent="1" vertex="1">
          <mxGeometry x="-2680" y="460" width="80" height="80" as="geometry" />
        </mxCell>
        <mxCell id="2UeZ1bjiQaoSKNEX52Vq-225" value="" style="whiteSpace=wrap;html=1;fillColor=#A7AFCA;fontColor=#ffffff;strokeColor=#314354;" parent="1" vertex="1">
          <mxGeometry x="-2510" y="380" width="90" height="80" as="geometry" />
        </mxCell>
        <mxCell id="2UeZ1bjiQaoSKNEX52Vq-226" value="0" style="whiteSpace=wrap;html=1;fillColor=#A7AFCA;fontColor=#ffffff;strokeColor=#314354;fontSize=40;fontStyle=1" parent="1" vertex="1">
          <mxGeometry x="-2420" y="380" width="90" height="80" as="geometry" />
        </mxCell>
        <mxCell id="2UeZ1bjiQaoSKNEX52Vq-227" value="" style="whiteSpace=wrap;html=1;aspect=fixed;fillColor=#A7AFCA;fontColor=#ffffff;strokeColor=#314354;" parent="1" vertex="1">
          <mxGeometry x="-1800" y="380" width="80" height="80" as="geometry" />
        </mxCell>
        <mxCell id="2UeZ1bjiQaoSKNEX52Vq-228" value="" style="whiteSpace=wrap;html=1;fillColor=#A7AFCA;fontColor=#ffffff;strokeColor=#314354;" parent="1" vertex="1">
          <mxGeometry x="-1890" y="380" width="90" height="80" as="geometry" />
        </mxCell>
        <mxCell id="2UeZ1bjiQaoSKNEX52Vq-229" value="" style="whiteSpace=wrap;html=1;fillColor=#A7AFCA;fontColor=#ffffff;strokeColor=#314354;" parent="1" vertex="1">
          <mxGeometry x="-1980" y="380" width="90" height="80" as="geometry" />
        </mxCell>
        <mxCell id="2UeZ1bjiQaoSKNEX52Vq-230" value="4" style="whiteSpace=wrap;html=1;fillColor=#A7AFCA;fontColor=#ffffff;strokeColor=#314354;fontSize=40;fontStyle=1" parent="1" vertex="1">
          <mxGeometry x="-2070" y="380" width="90" height="80" as="geometry" />
        </mxCell>
        <mxCell id="2UeZ1bjiQaoSKNEX52Vq-232" value="0" style="whiteSpace=wrap;html=1;aspect=fixed;fillColor=#A7AFCA;fontColor=#ffffff;strokeColor=#314354;fontSize=40;fontStyle=1" parent="1" vertex="1">
          <mxGeometry x="-1720" y="380" width="80" height="80" as="geometry" />
        </mxCell>
        <mxCell id="2UeZ1bjiQaoSKNEX52Vq-233" value="9" style="whiteSpace=wrap;html=1;aspect=fixed;fillColor=#A7AFCA;fontColor=#ffffff;strokeColor=#314354;fontSize=40;fontStyle=1" parent="1" vertex="1">
          <mxGeometry x="-1640" y="780" width="80" height="80" as="geometry" />
        </mxCell>
        <mxCell id="2UeZ1bjiQaoSKNEX52Vq-234" value="" style="whiteSpace=wrap;html=1;aspect=fixed;fillColor=#A7AFCA;fontColor=#ffffff;strokeColor=#314354;" parent="1" vertex="1">
          <mxGeometry x="-1640" y="700" width="80" height="80" as="geometry" />
        </mxCell>
        <mxCell id="2UeZ1bjiQaoSKNEX52Vq-235" value="" style="whiteSpace=wrap;html=1;aspect=fixed;fillColor=#A7AFCA;fontColor=#ffffff;strokeColor=#314354;" parent="1" vertex="1">
          <mxGeometry x="-1640" y="540" width="80" height="80" as="geometry" />
        </mxCell>
        <mxCell id="2UeZ1bjiQaoSKNEX52Vq-236" value="" style="whiteSpace=wrap;html=1;aspect=fixed;fillColor=#A7AFCA;fontColor=#ffffff;strokeColor=#314354;" parent="1" vertex="1">
          <mxGeometry x="-1640" y="620" width="80" height="80" as="geometry" />
        </mxCell>
        <mxCell id="2UeZ1bjiQaoSKNEX52Vq-237" value="" style="whiteSpace=wrap;html=1;aspect=fixed;fillColor=#A7AFCA;fontColor=#ffffff;strokeColor=#314354;" parent="1" vertex="1">
          <mxGeometry x="-1640" y="460" width="80" height="80" as="geometry" />
        </mxCell>
        <mxCell id="2UeZ1bjiQaoSKNEX52Vq-238" value="" style="whiteSpace=wrap;html=1;aspect=fixed;fillColor=#A7AFCA;fontColor=#ffffff;strokeColor=#314354;" parent="1" vertex="1">
          <mxGeometry x="-1640" y="380" width="80" height="80" as="geometry" />
        </mxCell>
        <mxCell id="2UeZ1bjiQaoSKNEX52Vq-239" value="" style="whiteSpace=wrap;html=1;aspect=fixed;fillColor=#A7AFCA;fontColor=#ffffff;strokeColor=#314354;" parent="1" vertex="1">
          <mxGeometry x="-1640" y="220" width="80" height="80" as="geometry" />
        </mxCell>
        <mxCell id="2UeZ1bjiQaoSKNEX52Vq-240" value="" style="whiteSpace=wrap;html=1;aspect=fixed;fillColor=#A7AFCA;fontColor=#ffffff;strokeColor=#314354;" parent="1" vertex="1">
          <mxGeometry x="-1640" y="300" width="80" height="80" as="geometry" />
        </mxCell>
        <mxCell id="2UeZ1bjiQaoSKNEX52Vq-242" value="0" style="whiteSpace=wrap;html=1;aspect=fixed;fillColor=#A7AFCA;fontColor=#ffffff;strokeColor=#314354;fontSize=40;fontStyle=1" parent="1" vertex="1">
          <mxGeometry x="-1720" y="160" width="80" height="80" as="geometry" />
        </mxCell>
        <mxCell id="2UeZ1bjiQaoSKNEX52Vq-244" value="" style="rounded=0;whiteSpace=wrap;html=1;fillColor=#A7AFCA;fontColor=#ffffff;strokeColor=#314354;" parent="1" vertex="1">
          <mxGeometry x="-1640" y="160" width="80" height="60" as="geometry" />
        </mxCell>
        <mxCell id="2UeZ1bjiQaoSKNEX52Vq-245" value="" style="shape=link;html=1;rounded=0;strokeWidth=4;" parent="1" edge="1">
          <mxGeometry width="100" relative="1" as="geometry">
            <mxPoint x="-2680" y="1199.33" as="sourcePoint" />
            <mxPoint x="-2600" y="1200" as="targetPoint" />
          </mxGeometry>
        </mxCell>
        <mxCell id="2UeZ1bjiQaoSKNEX52Vq-246" value="" style="shape=link;html=1;rounded=0;strokeWidth=4;" parent="1" edge="1">
          <mxGeometry width="100" relative="1" as="geometry">
            <mxPoint x="-4320.67" y="700" as="sourcePoint" />
            <mxPoint x="-4320" y="780" as="targetPoint" />
          </mxGeometry>
        </mxCell>
        <mxCell id="2UeZ1bjiQaoSKNEX52Vq-247" value="" style="shape=link;html=1;rounded=0;strokeWidth=4;fillColor=#f5f5f5;strokeColor=default;" parent="1" edge="1">
          <mxGeometry width="100" relative="1" as="geometry">
            <mxPoint x="-3040.33" y="160" as="sourcePoint" />
            <mxPoint x="-3039.66" y="240" as="targetPoint" />
          </mxGeometry>
        </mxCell>
        <mxCell id="2UeZ1bjiQaoSKNEX52Vq-248" value="" style="shape=link;html=1;rounded=0;strokeWidth=4;" parent="1" edge="1">
          <mxGeometry width="100" relative="1" as="geometry">
            <mxPoint x="-1680.33" y="1240" as="sourcePoint" />
            <mxPoint x="-1679.6599999999999" y="1320" as="targetPoint" />
          </mxGeometry>
        </mxCell>
        <mxCell id="2UeZ1bjiQaoSKNEX52Vq-249" value="" style="shape=link;html=1;rounded=0;strokeWidth=4;" parent="1" edge="1">
          <mxGeometry width="100" relative="1" as="geometry">
            <mxPoint x="-1640.67" y="189.5" as="sourcePoint" />
            <mxPoint x="-1560" y="189.5" as="targetPoint" />
          </mxGeometry>
        </mxCell>
        <mxCell id="2UeZ1bjiQaoSKNEX52Vq-250" value="" style="shape=link;html=1;rounded=0;strokeWidth=4;" parent="1" edge="1">
          <mxGeometry width="100" relative="1" as="geometry">
            <mxPoint x="-2680" y="419.77" as="sourcePoint" />
            <mxPoint x="-2599.33" y="419.77" as="targetPoint" />
          </mxGeometry>
        </mxCell>
        <mxCell id="2UeZ1bjiQaoSKNEX52Vq-251" value="&lt;b&gt;&lt;font style=&quot;font-size: 45px;&quot;&gt;0&lt;/font&gt;&lt;/b&gt;" style="shape=sumEllipse;perimeter=ellipsePerimeter;whiteSpace=wrap;html=1;backgroundOutline=1;fillColor=#B02418;fontColor=#ffffff;strokeColor=#FC0000;strokeWidth=2;" parent="1" vertex="1">
          <mxGeometry x="-2200" y="80" width="80" height="80" as="geometry" />
        </mxCell>
        <mxCell id="2UeZ1bjiQaoSKNEX52Vq-252" value="&lt;b&gt;&lt;font style=&quot;font-size: 45px;&quot;&gt;1&lt;/font&gt;&lt;/b&gt;" style="shape=sumEllipse;perimeter=ellipsePerimeter;whiteSpace=wrap;html=1;backgroundOutline=1;fillColor=#B02418;fontColor=#ffffff;strokeColor=#FC0000;strokeWidth=2;" parent="1" vertex="1">
          <mxGeometry x="-3560" y="620" width="80" height="80" as="geometry" />
        </mxCell>
        <mxCell id="2UeZ1bjiQaoSKNEX52Vq-253" value="&lt;b&gt;&lt;font style=&quot;font-size: 45px;&quot;&gt;3&lt;/font&gt;&lt;/b&gt;" style="shape=sumEllipse;perimeter=ellipsePerimeter;whiteSpace=wrap;html=1;backgroundOutline=1;fillColor=#B02418;fontColor=#ffffff;strokeColor=#FC0000;strokeWidth=2;" parent="1" vertex="1">
          <mxGeometry x="-2760" y="620" width="80" height="80" as="geometry" />
        </mxCell>
        <mxCell id="2UeZ1bjiQaoSKNEX52Vq-254" value="&lt;b&gt;&lt;font style=&quot;font-size: 45px;&quot;&gt;4&lt;/font&gt;&lt;/b&gt;" style="shape=sumEllipse;perimeter=ellipsePerimeter;whiteSpace=wrap;html=1;backgroundOutline=1;fillColor=#B02418;fontColor=#ffffff;strokeColor=#FC0000;strokeWidth=2;" parent="1" vertex="1">
          <mxGeometry x="-1560" y="300" width="80" height="80" as="geometry" />
        </mxCell>
        <mxCell id="2UeZ1bjiQaoSKNEX52Vq-255" value="&lt;b&gt;&lt;font style=&quot;font-size: 45px;&quot;&gt;2&lt;/font&gt;&lt;/b&gt;" style="shape=sumEllipse;perimeter=ellipsePerimeter;whiteSpace=wrap;html=1;backgroundOutline=1;fillColor=#B02418;fontColor=#ffffff;strokeColor=#FC0000;strokeWidth=2;" parent="1" vertex="1">
          <mxGeometry x="-2440" y="1320" width="80" height="80" as="geometry" />
        </mxCell>
        <mxCell id="2UeZ1bjiQaoSKNEX52Vq-256" value="" style="shape=link;html=1;rounded=0;strokeWidth=4;" parent="1" edge="1">
          <mxGeometry width="100" relative="1" as="geometry">
            <mxPoint x="-3520.33" y="700" as="sourcePoint" />
            <mxPoint x="-3519.66" y="780" as="targetPoint" />
          </mxGeometry>
        </mxCell>
        <mxCell id="2UeZ1bjiQaoSKNEX52Vq-257" value="" style="shape=link;html=1;rounded=0;fillColor=#647687;strokeColor=default;strokeWidth=4;" parent="1" edge="1">
          <mxGeometry width="100" relative="1" as="geometry">
            <mxPoint x="-2160.33" y="160" as="sourcePoint" />
            <mxPoint x="-2159.66" y="240" as="targetPoint" />
          </mxGeometry>
        </mxCell>
        <mxCell id="2UeZ1bjiQaoSKNEX52Vq-258" value="" style="shape=link;html=1;rounded=0;strokeWidth=4;" parent="1" edge="1">
          <mxGeometry width="100" relative="1" as="geometry">
            <mxPoint x="-2400.33" y="1240" as="sourcePoint" />
            <mxPoint x="-2399.66" y="1320" as="targetPoint" />
          </mxGeometry>
        </mxCell>
        <mxCell id="2UeZ1bjiQaoSKNEX52Vq-259" value="" style="shape=link;html=1;rounded=0;strokeWidth=4;" parent="1" edge="1">
          <mxGeometry width="100" relative="1" as="geometry">
            <mxPoint x="-2680" y="659.67" as="sourcePoint" />
            <mxPoint x="-2599.33" y="659.67" as="targetPoint" />
          </mxGeometry>
        </mxCell>
        <mxCell id="2UeZ1bjiQaoSKNEX52Vq-260" value="" style="shape=link;html=1;rounded=0;strokeWidth=4;" parent="1" edge="1">
          <mxGeometry width="100" relative="1" as="geometry">
            <mxPoint x="-1640.67" y="339.66999999999996" as="sourcePoint" />
            <mxPoint x="-1560" y="339.66999999999996" as="targetPoint" />
          </mxGeometry>
        </mxCell>
        <mxCell id="2UeZ1bjiQaoSKNEX52Vq-263" value="" style="verticalLabelPosition=bottom;verticalAlign=top;html=1;shape=mxgraph.basic.diag_stripe;dx=17;fillColor=#9B48A3;fontColor=#ffffff;strokeColor=default;" parent="1" vertex="1">
          <mxGeometry x="-2690" y="1230" width="100" height="100" as="geometry" />
        </mxCell>
        <mxCell id="2UeZ1bjiQaoSKNEX52Vq-270" value="&lt;b&gt;&lt;font style=&quot;font-size: 40px;&quot;&gt;0&lt;/font&gt;&lt;/b&gt;" style="rounded=1;whiteSpace=wrap;html=1;fillColor=#FFFFFF;strokeColor=#000000;fontColor=#1A1A1A;glass=0;strokeWidth=2;" parent="1" vertex="1">
          <mxGeometry x="-2700" y="80" width="120" height="60" as="geometry" />
        </mxCell>
        <mxCell id="2UeZ1bjiQaoSKNEX52Vq-271" value="&lt;b&gt;&lt;font style=&quot;font-size: 40px;&quot;&gt;1&lt;/font&gt;&lt;/b&gt;" style="rounded=1;whiteSpace=wrap;html=1;fillColor=#FFFFFF;strokeColor=#000000;fontColor=#1A1A1A;glass=0;strokeWidth=2;" parent="1" vertex="1">
          <mxGeometry x="-4020" y="620" width="120" height="60" as="geometry" />
        </mxCell>
        <mxCell id="2UeZ1bjiQaoSKNEX52Vq-272" value="&lt;b&gt;&lt;font style=&quot;font-size: 40px;&quot;&gt;2&lt;/font&gt;&lt;/b&gt;" style="rounded=1;whiteSpace=wrap;html=1;fillColor=#FFFFFF;strokeColor=#000000;fontColor=#1A1A1A;glass=0;strokeWidth=2;" parent="1" vertex="1">
          <mxGeometry x="-3660" y="1160" width="120" height="60" as="geometry" />
        </mxCell>
        <mxCell id="2UeZ1bjiQaoSKNEX52Vq-273" value="&lt;b&gt;&lt;font style=&quot;font-size: 40px;&quot;&gt;4&lt;/font&gt;&lt;/b&gt;" style="rounded=1;whiteSpace=wrap;html=1;fillColor=#FFFFFF;strokeColor=#000000;fontColor=#1A1A1A;glass=0;strokeWidth=2;" parent="1" vertex="1">
          <mxGeometry x="-2570" y="300" width="120" height="60" as="geometry" />
        </mxCell>
        <mxCell id="2UeZ1bjiQaoSKNEX52Vq-274" value="&lt;b&gt;&lt;font style=&quot;font-size: 40px;&quot;&gt;5&lt;/font&gt;&lt;/b&gt;" style="rounded=1;whiteSpace=wrap;html=1;fillColor=#FFFFFF;strokeColor=#000000;fontColor=#1A1A1A;glass=0;strokeWidth=2;" parent="1" vertex="1">
          <mxGeometry x="-1905" y="300" width="120" height="60" as="geometry" />
        </mxCell>
        <mxCell id="2UeZ1bjiQaoSKNEX52Vq-275" value="&lt;b&gt;&lt;font style=&quot;font-size: 40px;&quot;&gt;3&lt;/font&gt;&lt;/b&gt;" style="rounded=1;whiteSpace=wrap;html=1;fillColor=#FFFFFF;strokeColor=#000000;fontColor=#1A1A1A;glass=0;strokeWidth=2;" parent="1" vertex="1">
          <mxGeometry x="-2100" y="1160" width="120" height="60" as="geometry" />
        </mxCell>
        <mxCell id="2UeZ1bjiQaoSKNEX52Vq-276" value="&lt;b&gt;&lt;font style=&quot;font-size: 40px;&quot;&gt;6&lt;/font&gt;&lt;/b&gt;" style="rounded=1;whiteSpace=wrap;html=1;fillColor=#FFFFFF;strokeColor=#000000;fontColor=#1A1A1A;glass=0;strokeWidth=2;" parent="1" vertex="1">
          <mxGeometry x="-1540" y="510" width="120" height="60" as="geometry" />
        </mxCell>
        <mxCell id="5S9xvzvMG_Fj81ho2IlP-1" value="" style="shape=collate;whiteSpace=wrap;html=1;fillColor=#9B48A3;rotation=-90;" vertex="1" parent="1">
          <mxGeometry x="-1640" y="380" width="80" height="80" as="geometry" />
        </mxCell>
        <mxCell id="5S9xvzvMG_Fj81ho2IlP-2" value="&lt;font style=&quot;font-size: 30px;&quot; color=&quot;#000000&quot;&gt;Flow Controller&lt;/font&gt;" style="text;html=1;strokeColor=none;fillColor=none;align=center;verticalAlign=middle;whiteSpace=wrap;rounded=0;" vertex="1" parent="1">
          <mxGeometry x="-2715" y="1350" width="150" height="60" as="geometry" />
        </mxCell>
        <mxCell id="5S9xvzvMG_Fj81ho2IlP-3" value="&lt;font style=&quot;font-size: 30px;&quot; color=&quot;#000000&quot;&gt;Merger&lt;/font&gt;" style="text;html=1;strokeColor=none;fillColor=none;align=center;verticalAlign=middle;whiteSpace=wrap;rounded=0;" vertex="1" parent="1">
          <mxGeometry x="-1555" y="390" width="150" height="60" as="geometry" />
        </mxCell>
      </root>
    </mxGraphModel>
  </diagram>
</mxfile>
